<svg xmlns="http://www.w3.org/2000/svg" id="sv" width="180" height="180" viewBox="0 0 180 180"><path id="0" fill="#00b31b" d="M90, 0 A90,90 0 0 1 98.49067735566199,0.4014040397839125 L93.77363438029421,50.17840179545952 A40,40 0 0 0 90,50 Z" style="--darkreader-inline-fill: #008f16;" data-darkreader-inline-fill=""></path><path id="1" fill="#4287f5" d="M98.49067735566199, 0.4014040397839125 A90,90 0 0 1 98.49067735566199,0.4014040397839125 L93.77363438029421,50.17840179545952 A40,40 0 0 0 93.77363438029421,50.17840179545952 Z" style="--darkreader-inline-fill: #0944a2;" data-darkreader-inline-fill=""></path><path id="2" fill="#f7f700" d="M98.49067735566199, 0.4014040397839125 A90,90 0 0 1 98.49067735566199,0.4014040397839125 L93.77363438029421,50.17840179545952 A40,40 0 0 0 93.77363438029421,50.17840179545952 Z" style="--darkreader-inline-fill: #c6c600;" data-darkreader-inline-fill=""></path><path id="3" fill="#f74a00" d="M98.49067735566199, 0.4014040397839125 A90,90 0 0 1 98.49067735566199,0.4014040397839125 L93.77363438029421,50.17840179545952 A40,40 0 0 0 93.77363438029421,50.17840179545952 Z" style="--darkreader-inline-fill: #c63b00;" data-darkreader-inline-fill=""></path><path id="4" fill="#cf0000" d="M98.49067735566199, 0.4014040397839125 A90,90 0 1 1 89.98429203681187,0.0000013707783779182137 L89.99301868302749,50.00000060923484 A40,40 0 1 0 93.77363438029421,50.17840179545952 Z" style="--darkreader-inline-fill: #a60000;" data-darkreader-inline-fill=""></path></svg>