<svg xmlns="http://www.w3.org/2000/svg" id="sv" width="180" height="180" viewBox="0 0 180 180"><path id="0" fill="#00b31b" d="M90, 0 A90,90 0 0 1 175.59411560889714,62.18548269103435 L128.04182915950986,77.63799230712638 A40,40 0 0 0 90,50 Z" style="--darkreader-inline-fill: #008f16;" data-darkreader-inline-fill=""></path><path id="1" fill="#4287f5" d="M175.59411560889714, 62.18548269103435 A90,90 0 0 1 142.90575578109502,162.80783615265 L113.51366923604223,122.35903829006668 A40,40 0 0 0 128.04182915950986,77.63799230712638 Z" style="--darkreader-inline-fill: #0944a2;" data-darkreader-inline-fill=""></path><path id="2" fill="#f7f700" d="M142.90575578109502, 162.80783615265 A90,90 0 0 1 37.10695238926231,162.81706883999271 L66.49197883967213,122.36314170666341 A40,40 0 0 0 113.51366923604223,122.35903829006668 Z" style="--darkreader-inline-fill: #c6c600;" data-darkreader-inline-fill=""></path><path id="3" fill="#f74a00" d="M37.10695238926231, 162.81706883999271 A90,90 0 0 1 4.401031145731494,62.200422105974894 L51.95601384254733,77.64463204709995 A40,40 0 0 0 66.49197883967213,122.36314170666341 Z" style="--darkreader-inline-fill: #c63b00;" data-darkreader-inline-fill=""></path><path id="4" fill="#cf0000" d="M4.401031145731494, 62.200422105974894 A90,90 0 0 1 89.98429203681187,0.0000013707783779182137 L89.99301868302749,50.00000060923484 A40,40 0 0 0 51.95601384254733,77.64463204709995 Z" style="--darkreader-inline-fill: #a60000;" data-darkreader-inline-fill=""></path></svg>